<svg id="card-pos" xmlns="http://www.w3.org/2000/svg" width="24" height="24" viewBox="0 0 24 24">
  <path id="Vector" d="M0,11.95,11.95,0" transform="translate(3.93 3.929)" fill="none" stroke="#a0a3b1" stroke-linecap="round" stroke-linejoin="round" stroke-width="1.5"/>
  <path id="Vector-2" data-name="Vector" d="M0,1.2,1.2,0" transform="translate(11.101 17.079)" fill="none" stroke="#a0a3b1" stroke-linecap="round" stroke-linejoin="round" stroke-width="1.5"/>
  <path id="Vector-3" data-name="Vector" d="M0,2.39,2.39,0" transform="translate(13.793 13.199)" fill="none" stroke="#a0a3b1" stroke-linecap="round" stroke-linejoin="round" stroke-width="1.5"/>
  <path id="Vector-4" data-name="Vector" d="M1.6,8.238,8.241,1.6c2.12-2.12,3.18-2.13,5.28-.03l4.91,4.91c2.1,2.1,2.09,3.16-.03,5.28l-6.64,6.64c-2.12,2.12-3.18,2.13-5.28.03l-4.91-4.91C-.529,11.418-.529,10.368,1.6,8.238Z" transform="translate(2 2.001)" fill="none" stroke="#a0a3b1" stroke-linecap="round" stroke-linejoin="round" stroke-width="1.5"/>
  <path id="Vector-5" data-name="Vector" d="M0,0H20" transform="translate(2 21.999)" fill="none" stroke="#a0a3b1" stroke-linecap="round" stroke-linejoin="round" stroke-width="1.5"/>
  <path id="Vector-6" data-name="Vector" d="M0,0H24V24H0Z" fill="none" opacity="0"/>
</svg>
