<svg xmlns="http://www.w3.org/2000/svg" xmlns:xlink="http://www.w3.org/1999/xlink" width="626" height="404.67" viewBox="0 0 626 404.67">
  <defs>
    <clipPath id="clip-path">
      <rect id="Rectangle_27722" data-name="Rectangle 27722" width="626" height="404.67" fill="none"/>
    </clipPath>
  </defs>
  <g id="Group_15179" data-name="Group 15179" transform="translate(40.519)">
    <g id="Group_15178" data-name="Group 15178" transform="translate(-40.519)" clip-path="url(#clip-path)">
      <path id="Path_36341" data-name="Path 36341" d="M155.8,326.455c-61.391.24-120.5-40.638-138.929-96.083-6.951-20.908-7.239-46.68,9.771-61.548,13.237-11.571,32.723-13.047,50.487-15.887s37.545-9.556,43.974-25.491c4.824-11.957.48-25.231-.569-37.995-2.6-31.652,17.923-63.836,48.723-76.389s69.6-4.554,92.089,18.99c8.916,9.33,15.268,20.581,23.435,30.507s19,18.892,32.154,20.709c22.7,3.135,41.518-15.111,61.754-25.345,37.494-18.968,88.9-7.895,114.046,24.561,10.4,13.422,16.644,29.773,29.214,41.411,12.222,11.317,29.092,16.923,42.626,26.812,30.541,22.315,39.258,65.408,24.906,99.31s-48.252,58.262-85.328,68.353-76.956,7.264-114.382-1.586c-15-3.546-30.374-8.075-45.615-5.635-15.99,2.564-29.4,12.4-43.492,20-50.4,27.184-116.708,25.478-165.478-4.257Z" transform="translate(15.944 9.199)" fill="#f5f9f9"/>
      <path id="Path_36342" data-name="Path 36342" d="M570.326,178.748c0,7.3-124.129,13.212-277.248,13.212s-277.25-5.916-277.25-13.212,124.129-13.212,277.25-13.212,277.248,5.916,277.248,13.212" transform="translate(20.339 212.71)" fill="#e9ecf2"/>
      <path id="Path_36343" data-name="Path 36343" d="M16.273,80.949c-.007.274-.016.542-.023.816-.98,33.441,2.452,59.51,8.258,79.821L41.742,172.3l-14.174-2.194-.4-.062c7.689,22.324,18.319,36.747,28.366,46.022a73.453,73.453,0,0,0,17.208,12.026c.327.164.647.322.967.473.8.382,1.567.724,2.3,1.035l9.48.5c.133-.443.254-.877.37-1.321.082-.277.155-.553.224-.829.11-.363.2-.733.292-1.1,11.206-43.168-2.916-77.6-21.36-102.148a2.026,2.026,0,0,0-.181-.245A167.026,167.026,0,0,0,44.9,102.542l-4.191,10.671-.6-14.948a164.788,164.788,0,0,0-23.286-17c-.363-.212-.553-.315-.553-.315" transform="translate(20.668 104.018)" fill="#efeaf1"/>
      <path id="Path_36344" data-name="Path 36344" d="M16.02,81.2l.313.658L35.8,122.617l.35.72,5.306,11.114.181.372L58.56,170.252l.025.048L86.16,228.041l.416.866.658,1.371.827.043-.651-1.371-.957-2L59.239,169.966l-.507-1.056L16.909,81.357l-.231-.48Z" transform="translate(20.586 103.925)" fill="#fff"/>
      <rect id="Rectangle_27707" data-name="Rectangle 27707" width="0.637" height="29.297" transform="translate(37.834 222.509) rotate(-55.512)" fill="#fff"/>
      <rect id="Rectangle_27708" data-name="Rectangle 27708" width="0.637" height="22.965" transform="translate(37.678 214.446) rotate(-55.512)" fill="#fff"/>
      <rect id="Rectangle_27709" data-name="Rectangle 27709" width="46.181" height="0.637" transform="translate(79.139 274.223) rotate(-82.612)" fill="#fff"/>
      <path id="Path_36345" data-name="Path 36345" d="M109.86,187.416s-22.468,10.616-54.435-8.443l10.365-4.92-16.918.679C36.393,166,22.7,152.7,8.484,132.682l3.955-1.874-5.13.2q-3.6-5.134-7.23-10.86a124.111,124.111,0,0,1,22.806.72l6.889,9.327-1.954-8.662c27.44,4.163,67.389,18.543,82.038,65.881" transform="translate(0.103 154.106)" fill="#efeaf1"/>
      <rect id="Rectangle_27710" data-name="Rectangle 27710" width="0.72" height="129.134" transform="matrix(0.505, -0.863, 0.863, 0.505, -0.001, 274.57)" fill="#fff"/>
      <rect id="Rectangle_27711" data-name="Rectangle 27711" width="16.045" height="0.668" transform="translate(13.211 292.802) rotate(-5.885)" fill="#fff"/>
      <path id="Path_36346" data-name="Path 36346" d="M8.073,133.288l18.613-3.318-.117-.658L7.956,132.63Z" transform="translate(10.223 166.163)" fill="#fff"/>
      <path id="Path_36347" data-name="Path 36347" d="M55.51,142.725l.56-.631a98.334,98.334,0,0,0-33.861-19.276l-.272.8A97.472,97.472,0,0,1,55.51,142.725" transform="translate(28.189 157.819)" fill="#5e2d77"/>
      <path id="Path_36348" data-name="Path 36348" d="M45.96,45.425V334.951a7.212,7.212,0,0,0,7.112,7.318H191.284a7.217,7.217,0,0,0,7.112-7.318V45.425a7.216,7.216,0,0,0-7.112-7.323H53.072a7.21,7.21,0,0,0-7.112,7.323" transform="translate(59.058 48.387)" fill="#5e2d77"/>
      <path id="Path_36349" data-name="Path 36349" d="M43.024,45.387V333.4a7.277,7.277,0,0,0,7.285,7.28h141.57a7.283,7.283,0,0,0,7.285-7.28V45.387a7.281,7.281,0,0,0-7.285-7.285H50.309a7.275,7.275,0,0,0-7.285,7.285" transform="translate(55.285 48.96)" fill="#5e2d77"/>
      <path id="Path_36350" data-name="Path 36350" d="M47.951,58.595V288.449a8.4,8.4,0,0,0,8.322,8.476H181.9a8.4,8.4,0,0,0,8.322-8.476V58.595a8.4,8.4,0,0,0-8.322-8.476H56.273a8.4,8.4,0,0,0-8.322,8.476" transform="translate(57.448 62.715)" fill="#efeaf1"/>
      <path id="Path_36351" data-name="Path 36351" d="M46.46,287.768V59.485a9.951,9.951,0,0,1,9.766-10.1H178.2a9.951,9.951,0,0,1,9.766,10.1V287.768a9.949,9.949,0,0,1-9.766,10.1H56.226a9.949,9.949,0,0,1-9.766-10.1M56.226,52.754a6.575,6.575,0,0,0-6.393,6.732V287.768a6.575,6.575,0,0,0,6.393,6.732H178.2a6.577,6.577,0,0,0,6.4-6.732V59.485a6.577,6.577,0,0,0-6.4-6.732Z" transform="translate(59.7 63.454)" fill="#fff"/>
      <path id="Path_36352" data-name="Path 36352" d="M187.783,341.577H72.391v-1.142H187.783a6.721,6.721,0,0,0,6.713-6.713V45.707a6.721,6.721,0,0,0-6.713-6.713H46.212V37.851h141.57a7.865,7.865,0,0,1,7.856,7.856V333.722a7.867,7.867,0,0,1-7.856,7.856" transform="translate(59.381 48.638)" fill="#5e2d77"/>
      <rect id="Rectangle_27712" data-name="Rectangle 27712" width="1.142" height="68.456" rx="0.571" transform="translate(97.738 102.806)" fill="#0e1740"/>
      <path id="Path_36370" data-name="Path 36370" d="M119.912,121.115c9.9-1.513,45.885-15.271,45.885-15.271s-2.644-5.141-12.17-3.779-33.866,7.559-33.866,7.559Z" transform="translate(153.89 130.857)" fill="#fcb47e"/>
      <path id="Path_36371" data-name="Path 36371" d="M143.921,73.6a37.812,37.812,0,1,0,36.528,39.055A37.811,37.811,0,0,0,143.921,73.6m29.156,38.81a30.433,30.433,0,1,1-30.249-31.453c.286,0,.562.011.848.021a30.469,30.469,0,0,1,29.415,30.6c0,.276,0,.555-.014.832" transform="translate(134.723 94.542)" fill="#fcc659"/>
      <path id="Path_36372" data-name="Path 36372" d="M168.94,107.425c0,.276,0,.555-.014.832A30.435,30.435,0,1,1,138.677,76.8c.286,0,.562.011.848.021a30.466,30.466,0,0,1,29.415,30.6" transform="translate(138.875 98.691)" fill="#f49b51"/>
      <path id="Path_36373" data-name="Path 36373" d="M125.335,126.48l.037-5.726a16.516,16.516,0,0,1-8.66-2.55l1.385-3.791a15.128,15.128,0,0,0,8.151,2.491c4.026.025,6.761-2.283,6.782-5.514.018-3.119-2.18-5.061-6.364-6.789-5.77-2.3-9.325-4.936-9.3-9.867.03-4.707,3.4-8.258,8.619-9.076l.037-5.726,3.514.023-.034,5.5a15.113,15.113,0,0,1,7.36,2.031l-1.442,3.731a13.7,13.7,0,0,0-7.131-1.972c-4.367-.027-6.028,2.571-6.041,4.837-.018,2.95,2.07,4.437,6.99,6.508,5.824,2.42,8.756,5.386,8.724,10.433-.03,4.479-3.174,8.656-9.019,9.581l-.039,5.9Z" transform="translate(149.973 102.712)" fill="#fcc659"/>
      <path id="Path_36374" data-name="Path 36374" d="M143.315,98.386c-.062-.247-.13-.5-.2-.74a30.065,30.065,0,0,0-16.031-18.993l.354-.745a30.865,30.865,0,0,1,16.456,19.463c.087.3.158.558.222.813Z" transform="translate(163.298 100.11)" fill="#0e1740"/>
      <path id="Path_36375" data-name="Path 36375" d="M138.579,80.333a30.006,30.006,0,0,0-20.243-1.993l-.2-.8a30.843,30.843,0,0,1,20.8,2.047Z" transform="translate(151.799 98.43)" fill="#0e1740"/>
      <path id="Path_36376" data-name="Path 36376" d="M133.442,103.452l-.708-.423a29.876,29.876,0,0,0,3.939-11.039l.816.119a30.74,30.74,0,0,1-4.047,11.343" transform="translate(170.561 118.207)" fill="#0e1740"/>
      <path id="Path_36377" data-name="Path 36377" d="M137.7,81.849a37.3,37.3,0,0,0-9.716-6.24l.356-.811a38.265,38.265,0,0,1,9.947,6.389Z" transform="translate(164.463 96.114)" fill="#0e1740"/>
      <path id="Path_36378" data-name="Path 36378" d="M130.92,133.433l-.489-.738A37.379,37.379,0,0,0,141.447,81.7l.749-.471a38.265,38.265,0,0,1-11.276,52.2" transform="translate(167.601 104.383)" fill="#0e1740"/>
      <path id="Path_36379" data-name="Path 36379" d="M173.955,112.446s-.9-10.5-16.027-11.187c-11.715-.53-15.572-6.955-25.247-7.863-9.334-.875-18.9,3.779-18.9,3.779a39.69,39.69,0,0,1-9.419,2.358,28.811,28.811,0,0,1-16.132-3.265l.151,32.355s24.644-2.118,29.785-.907,29.179,11.642,39.082,10.129,45.885-15.271,45.885-15.271-2.191-6.048-11.717-4.687-17.992,4.385-20.864,4.536a14.119,14.119,0,0,1-5.443-.907l-22.829-9.526a155.525,155.525,0,0,0,31.674.455" transform="translate(113.376 119.872)" fill="#ffc49c"/>
      <path id="Path_36380" data-name="Path 36380" d="M69.823,142.545c0,8.324.334,16.331.967,23.782.007.057.007.112.016.169,2.411,28.606,9.017,49.141,16.8,49.141,8.052,0,14.85-21.95,17.048-52.072v-.313l.391-35.04v-.283C103.4,94.56,96.215,69.446,87.609,69.446c-8.377,0-15.389,23.771-17.281,55.79,0,.05-.007.1-.007.151-.32,5.5-.5,11.249-.5,17.158" transform="translate(89.721 89.237)" fill="#0e1740"/>
      <path id="Path_36381" data-name="Path 36381" d="M109.9,114.144c-3.425,30.781-12.026,51.188-21.748,51.188-8.3,0-15.771-14.478-19.98-38.719l1.074-.148c4.065,23.38,11.3,37.905,18.906,37.905,8.975,0,17.3-20.4,20.643-50.1Z" transform="translate(87.597 146.673)" fill="#0e1740"/>
      <path id="Path_36382" data-name="Path 36382" d="M67.164,141.477c-.295-5.141-.446-10.461-.446-15.808,0-6.233.215-12.54.638-18.751,0-.009,0-.048.007-.089l0-.075a219.226,219.226,0,0,1,2.95-24.175l1.074.153a219.225,219.225,0,0,0-2.941,24.081.446.446,0,0,1,0,.087l0,.078c-.42,6.19-.635,12.478-.635,18.691,0,5.331.151,10.634.443,15.76Z" transform="translate(85.731 106.112)" fill="#0e1740"/>
      <path id="Path_36383" data-name="Path 36383" d="M108.156,118.941l-1.076.032c-3.224-30.386-11.635-51.689-20.818-51.689-5.726,0-11.407,8.39-15.57,23.033l-1.053-.228C74,74.761,79.9,66.325,86.261,66.325c5.422,0,10.472,6.023,14.6,17.409,3.311,9.154,5.85,21.454,7.3,35.207" transform="translate(89.483 85.226)" fill="#0e1740"/>
      <path id="Path_36386" data-name="Path 36386" d="M88.247,99.556l.119,25.651s4.056-.345,9.215-.676c-.267-5.92-1.282-20.823-4.931-27.813-.912-1.746-2.477-.418-4.4,2.838" transform="translate(113.396 123.289)" fill="#ffa87d"/>
      <path id="Path_36387" data-name="Path 36387" d="M131.436,103.473a190.78,190.78,0,0,1-19.518-1.149l.114-1.138a173.9,173.9,0,0,0,23.067,1.09l.034,1.142c-1.206.034-2.438.055-3.7.055" transform="translate(143.812 130.022)" fill="#0e1740"/>
      <path id="Path_36388" data-name="Path 36388" d="M132.1,109.614a14.745,14.745,0,0,1-5.093-.967l-9.3-3.88.441-1.053,9.3,3.878a13.089,13.089,0,0,0,5.191.864,42.493,42.493,0,0,0,6.169-1.366,131.524,131.524,0,0,1,14.644-3.162c9.857-1.424,12.311,4.99,12.334,5.057l-1.074.391c-.085-.228-2.189-5.585-11.1-4.319a131.065,131.065,0,0,0-14.516,3.14,41.7,41.7,0,0,1-6.4,1.4c-.2.009-.4.016-.6.016" transform="translate(151.259 133.27)" fill="#0e1740"/>
      <path id="Path_36389" data-name="Path 36389" d="M96.815,100.9l-.628-.955c5.7-3.754,14.014-6.115,14.366-6.213l.306,1.1c-.082.023-8.5,2.413-14.043,6.069" transform="translate(123.598 120.45)" fill="#0e1740"/>
      <path id="Path_36390" data-name="Path 36390" d="M116.673,129.358q-.411,3.657-1.076,7.36l-7.73.8-2.415.242-1.353.142-32.965,3.4c-.007-.062-.007-.117-.016-.18-.676-9.106-1.031-18.874-1.031-29.042,0-6.809.167-13.438.473-19.815.016-.37.039-.74.055-1.1,0-.055.007-.11.007-.165h.041l33.845,3.128,1.188.112,2.593.235,7.307.667a113.506,113.506,0,0,1,1.076,34.224" transform="translate(90.06 116.922)" fill="#5e2d77"/>
      <path id="Path_36391" data-name="Path 36391" d="M116.889,129.266q-.435,3.657-1.124,7.36l-8.036.8-2.061.2-1.849.18-32.486,3.217-.165.016q-.12-1.3-.235-2.619c-.009-.055-.009-.11-.016-.174-.654-7.486-1-15.538-1-23.905,0-5.936.187-11.717.519-17.254,0-.048.007-.094.007-.149.1-1.613.212-3.2.331-4.773.016-.37.039-.74.055-1.1h.032l3.537.315c.669,7.486,3.021,27.13,9.611,32.515,4.577,3.736,14.242,4.892,21.9,5.191,6.062.235,10.867-.071,10.867-.071Z" transform="translate(89.844 117.014)" fill="#0e1740" opacity="0.2" style="mix-blend-mode: multiply;isolation: isolate"/>
      <path id="Path_36392" data-name="Path 36392" d="M215.386,62.734s-2.932-2.21-1.3-5.274c1.174-2.212,5.109-3.05,5.109-3.05-1.186,1.515-1.707,5.916-2.9,7.431Z" transform="translate(274.459 69.916)" fill="#374263"/>
      <path id="Path_36393" data-name="Path 36393" d="M218.993,83.726s4.431-9.873-.587-17.208l9.017-4.974s2.788,14.734,9.208,27.365c-4.865,4.314-16.92,4.163-17.638-5.182" transform="translate(280.647 79.082)" fill="#ffc49c"/>
      <path id="Path_36394" data-name="Path 36394" d="M218.4,64.643a14.466,14.466,0,0,1,2.39,8.132c4.3-3.028,7.821-9.775,7.821-9.775Z" transform="translate(280.643 80.954)" fill="#374263"/>
      <path id="Path_36395" data-name="Path 36395" d="M234.906,75.584c-1.609,2.05-8.7,7.952-13.568,7.321-6.158-.8-9.862-23.053-4.7-27.283,2.769-2.271,10.47-1.874,14.8,3.2s5.623,14.023,3.473,16.76" transform="translate(275.232 69.773)" fill="#ffc49c"/>
      <path id="Path_36396" data-name="Path 36396" d="M206.686,163.857c17.213,7.492,32.9,0,32.9,0l-16.955-5.2Z" transform="translate(265.587 203.867)" fill="#374263"/>
      <path id="Path_36397" data-name="Path 36397" d="M261.421,159.022s-10.609,13.36-31.748,9.812l.34-13.157Z" transform="translate(295.125 200.042)" fill="#374263"/>
      <path id="Path_36398" data-name="Path 36398" d="M253.646,167.466l-5.127-11.317-12.371,4.211,6.556,10.451c2.79,4.058,10.874,1.739,10.943-3.345" transform="translate(303.445 200.648)" fill="#ffc49c"/>
      <path id="Path_36399" data-name="Path 36399" d="M222.316,171.767l2.255-12.366H211.5l-.621,12.008c1.334,4.741,9.732,5.148,11.436.359" transform="translate(270.977 204.827)" fill="#ffc49c"/>
      <path id="Path_36400" data-name="Path 36400" d="M281.99,232.016a76.159,76.159,0,0,1-31.748,9.812S205.354,176.76,215.033,98.872h32.9s-8.009,60.209,34.055,133.144" transform="translate(274.556 127.049)" fill="#5e2d77"/>
      <path id="Path_36401" data-name="Path 36401" d="M218.432,179.138a251.941,251.941,0,0,0,16.383,38.913l10.666-73.4a225.294,225.294,0,0,1-3.709-26.618l-3.354-13.02Z" transform="translate(280.681 134.937)" fill="#0e1740" opacity="0.2" style="mix-blend-mode: multiply;isolation: isolate"/>
      <path id="Path_36402" data-name="Path 36402" d="M206.524,244.038a122.786,122.786,0,0,0,32.9,0l18.056-106.661a42.327,42.327,0,0,0,9.752-20.208,31.95,31.95,0,0,0-.174-11.521,29.737,29.737,0,0,0-.864-3.411l-1.131-.16-13.49-1.865-3.178-.441-24.66-3.421Z" transform="translate(265.379 123.809)" fill="#5e2d77"/>
      <path id="Path_36403" data-name="Path 36403" d="M216.629,101.776c8.16,9.7,29.309,12.663,37.62,13.468a31.884,31.884,0,0,0-.174-11.519l-1.995-3.571-.007-.009L238.59,98.287l-3.176-.439Z" transform="translate(278.364 125.733)" fill="#0e1740"/>
      <path id="Path_36404" data-name="Path 36404" d="M212.683,136.569a46.289,46.289,0,0,0,6.425,3.217,81.212,81.212,0,0,0,9.972,3.325c16.852,4.554,35.851,5.317,35.851,5.317-7.095-23.741-1.11-45.414-6.08-62.526-3.373-11.6-14.281-17.009-14.281-17.009-3.681,2.449-13.31,6.841-17.391,3.146a1.2,1.2,0,0,0-1.757.135c-16.982,22-11.935,32.344-11.8,48.668a143.84,143.84,0,0,1-.944,15.728" transform="translate(273.293 88.525)" fill="#efeaf1"/>
      <rect id="Rectangle_27713" data-name="Rectangle 27713" width="82.947" height="0.866" transform="translate(509.633 342.89) rotate(-80.86)" fill="#fff"/>
      <path id="Path_36405" data-name="Path 36405" d="M214.555,59.887c-.772-2.438.768-3.469,2.539-5.329,1.807-1.9,4.675-2.015,7.143-1.513a12.017,12.017,0,0,1,6.229,3.078c2.941,2.952,3.592,10.934-1.574,11.169-8.157.375-13-3.2-14.336-7.406" transform="translate(275.436 67.836)" fill="#374263"/>
      <path id="Path_36406" data-name="Path 36406" d="M231.729,73.265c-1.117-3.325-3.827-5.356-5.9-8.194l-11-6.846c2.7-4.1,11.164-7.339,16.7-5.319,5.92,2.162,9.362,8.249,12.494,17.359A26.4,26.4,0,0,0,251,80.782c15.8,15.019,16.344,30.4,6.72,36.432-7.2,4.513-13.047,1.935-16.582-.58-10.712-7.625-10.682-35.655-9.41-43.369" transform="translate(276.055 67.188)" fill="#374263"/>
      <path id="Path_36407" data-name="Path 36407" d="M222.157,64.593a15.677,15.677,0,0,0,6.6-.553l-.2-.615c-.055.018-5.477,1.771-9.5-.558A8.857,8.857,0,0,1,215,56.593l-.635.13a9.473,9.473,0,0,0,4.376,6.706,9.713,9.713,0,0,0,3.421,1.163" transform="translate(275.45 72.721)" fill="#374263"/>
      <path id="Path_36408" data-name="Path 36408" d="M220.569,61.841a2.891,2.891,0,1,0,3.295-2.424,2.894,2.894,0,0,0-3.295,2.424" transform="translate(283.384 76.307)" fill="#ffc49c"/>
      <path id="Path_36409" data-name="Path 36409" d="M234.247,184.269l15.394.018a1.6,1.6,0,0,0,1.161-.5l14.386-15.069a1.469,1.469,0,0,0-.021-2.047l-6.6-6.368c-.8-.809-2.689-.619-2.6.519.42,5.516-6.119,6.462-10.132,5.585a.994.994,0,0,0-1.161.7c-.576,2.066-1.312,6.814-2.26,8.084-1.675,2.242-4.2,2.747-6.19,3.779a4.02,4.02,0,0,0-1.976,5.294" transform="translate(300.559 205.354)" fill="#0e1740"/>
      <path id="Path_36410" data-name="Path 36410" d="M241.9,167.455a3.651,3.651,0,0,1-3.976-1.494l.507-.311a3.006,3.006,0,0,0,3.32,1.229Z" transform="translate(305.726 212.857)" fill="#fff"/>
      <path id="Path_36411" data-name="Path 36411" d="M241.083,168.6a3.687,3.687,0,0,1-3.8-1.408l.5-.327a3.1,3.1,0,0,0,3.19,1.152Z" transform="translate(304.906 214.421)" fill="#fff"/>
      <path id="Path_36412" data-name="Path 36412" d="M245.311,165.375a10.957,10.957,0,0,1-4.451.772l.039-.592c.059,0,5.856.336,6.983-3.772l.571.158a5.2,5.2,0,0,1-3.142,3.434" transform="translate(309.5 207.888)" fill="#fff"/>
      <path id="Path_36413" data-name="Path 36413" d="M253.01,164.3,241.1,176.434l-.423-.414,11.9-12.133Z" transform="translate(309.269 210.592)" fill="#fff"/>
      <path id="Path_36414" data-name="Path 36414" d="M237.057,178.77l-33.589.123a2.015,2.015,0,0,1-2.024-2.148l0-.043c.023-.256.053-.521.091-.786a5.219,5.219,0,0,1,.768-2.349c1.586-2.118,4.675-3.094,10.175-5.3a44.265,44.265,0,0,0,7.671-4.086,1.059,1.059,0,0,1,1.328.135c6.668,6.471,10.742,5.073,11.953,2.388.925-2.045,2.246-1.625,2.614-1.026,1.126,1.867,1.759,7.351,2.02,10.1.032.3.055.569.073.786.039.512.064.823.064.823a1.174,1.174,0,0,1-1.145,1.38" transform="translate(258.843 210.75)" fill="#0e1740"/>
      <path id="Path_36415" data-name="Path 36415" d="M208.266,169.46a3.585,3.585,0,0,1-2.04-3.638l.576.085a2.958,2.958,0,0,0,1.716,3.028Z" transform="translate(264.97 213.078)" fill="#fff"/>
      <path id="Path_36416" data-name="Path 36416" d="M206.929,169.8a3.628,3.628,0,0,1-1.963-3.462l.58.069a3.048,3.048,0,0,0,1.668,2.886Z" transform="translate(263.363 213.738)" fill="#fff"/>
      <path id="Path_36417" data-name="Path 36417" d="M216.543,168.444a10.723,10.723,0,0,1-4.319-1.026l.265-.519c.05.027,5.157,2.568,7.764-.7l.455.363a5.1,5.1,0,0,1-4.165,1.885" transform="translate(272.704 213.559)" fill="#fff"/>
      <rect id="Rectangle_27714" data-name="Rectangle 27714" width="19.573" height="0.583" transform="translate(473.309 386.983) rotate(-0.214)" fill="#fff"/>
      <rect id="Rectangle_27715" data-name="Rectangle 27715" width="4.629" height="0.584" transform="translate(466.166 387.009) rotate(-0.226)" fill="#fff"/>
      <path id="Path_36418" data-name="Path 36418" d="M215.495,119.52a81.743,81.743,0,0,0,9.972,3.327c4.876-5.45,15.59-15.3,16.6-38.184Z" transform="translate(276.907 108.79)" fill="#5e2d77" opacity="0.2" style="mix-blend-mode: multiply;isolation: isolate"/>
      <path id="Path_36419" data-name="Path 36419" d="M213.074,133.8c31.857-7.227,37.346-40.556,37.346-40.556s-5.262-14.665-11.7-15.2l-.185-.014a11.4,11.4,0,0,0-12.309,10.863c-.562,11.571-2.845,25.946-17.233,34.471Z" transform="translate(268.549 100.211)" fill="#efeaf1"/>
      <path id="Path_36420" data-name="Path 36420" d="M209.355,127.693l-.466-.786c13.246-7.847,15.069-20.59,16.678-31.832.112-.781.224-1.554.336-2.312.585-3.93,2.589-13.534,8.571-17.841l.532.74c-5.7,4.1-7.632,13.42-8.2,17.233-.114.759-.224,1.529-.336,2.31-1.556,10.879-3.494,24.417-17.117,32.488" transform="translate(268.418 96.272)" fill="#2e4882"/>
      <path id="Path_36421" data-name="Path 36421" d="M223.441,106.1l-.688-.6c5.491-6.272,9.3-19.962,9.341-20.1l.88.242c-.155.571-3.907,14.03-9.533,20.46" transform="translate(286.233 109.739)" fill="#2e4882"/>
      <path id="Path_36422" data-name="Path 36422" d="M223.3,110.989c-.272-.137-6.649-3.386-7.476-9.179l.9-.128c.759,5.313,6.919,8.459,6.981,8.491Z" transform="translate(277.328 130.659)" fill="#fff"/>
      <path id="Path_36423" data-name="Path 36423" d="M208.506,107.306c.078.267-5.582,1.44-5.253,2.335.448,1.2,4.979-.951,5.23-.425.117.26-1.613.731-2.612,1.149-.551.229-.457.715-.055.754,4.191.4,10.129-3.916,10.828-4.065,1.211-.244,2.383-.519,3.514-.811l-3.018-7.737c-.567.4-1.156.77-1.762,1.133-.763.455-2.9,1.73-3.775,1.753-.825.023-5.276-.425-5.285.535-.007,1,3.124.66,2.982,1.446-.087.489-6.213,1.243-5.765,2.36.29.731,3.939-.229,3.948.2.007.4-4.728.653-4.351,1.762.4,1.156,5.224-.935,5.372-.393" transform="translate(260.996 126.58)" fill="#ffbb8d"/>
      <path id="Path_36424" data-name="Path 36424" d="M170.759,128.69l-9.576,38.07a.441.441,0,0,0,.043.3.43.43,0,0,0,.24.176l.007,0,11.418,2.87a.392.392,0,0,0,.315-.057.387.387,0,0,0,.167-.272l5.74-39.032a.4.4,0,0,0-.29-.441l-7.582-1.9a.4.4,0,0,0-.482.29" transform="translate(207.106 164.978)" fill="#896b98"/>
      <path id="Path_36425" data-name="Path 36425" d="M177.314,140.853l-21.586-5.418,2.073-8.258c1.28-5.1,6.775-8.123,12.243-6.754l1.748.439a10.562,10.562,0,0,1,6.284,4.41,9.15,9.15,0,0,1,1.312,7.323Zm-17.428-7.908,14.937,3.75,1.238-4.933a5.75,5.75,0,0,0-.852-4.6,7.112,7.112,0,0,0-4.255-2.971l-1.746-.439c-3.635-.909-7.264,1-8.084,4.264Z" transform="translate(200.107 154.318)" fill="#374263"/>
      <path id="Path_36426" data-name="Path 36426" d="M144.564,162.009a.438.438,0,0,0,.023.322.408.408,0,0,0,.249.194l38.008,9.538a.379.379,0,0,0,.462-.247L196.682,134.7a.385.385,0,0,0-.023-.322.407.407,0,0,0-.251-.194l-38-9.542a.4.4,0,0,0-.473.251Z" transform="translate(185.735 160.15)" fill="#b48ac9"/>
      <path id="Path_36427" data-name="Path 36427" d="M175.111,143.482l-21.586-5.42,2.849-11.354a9.157,9.157,0,0,1,4.616-5.836,10.573,10.573,0,0,1,7.629-.916l1.741.436a10.571,10.571,0,0,1,6.288,4.412,9.146,9.146,0,0,1,1.314,7.321Zm-17.428-7.911,14.939,3.752,2.015-8.032a5.753,5.753,0,0,0-.852-4.6,7.138,7.138,0,0,0-4.259-2.968l-1.743-.439a7.162,7.162,0,0,0-5.159.606,5.759,5.759,0,0,0-2.925,3.656Z" transform="translate(197.277 153.716)" fill="#374263"/>
      <path id="Path_36428" data-name="Path 36428" d="M196.208,107l-20.051,63.742a.392.392,0,0,0,.256.489l15.362,4.837a.384.384,0,0,0,.318-.039.371.371,0,0,0,.181-.254l14.921-65.33a.379.379,0,0,0-.267-.457L196.7,106.749a.4.4,0,0,0-.3.021.44.44,0,0,0-.2.233" transform="translate(226.335 137.146)" fill="#7c94d1"/>
      <path id="Path_36429" data-name="Path 36429" d="M196.529,119.7l-.976-.308,2.728-8.667a9.963,9.963,0,0,0-6.489-12.453l-2.1-.663a9.946,9.946,0,0,0-12.455,6.494l-2.726,8.667-.976-.306,2.728-8.669A10.981,10.981,0,0,1,190,96.633l2.1.66a10.982,10.982,0,0,1,7.154,13.735Z" transform="translate(222.984 123.52)" fill="#3f5a9f"/>
      <path id="Path_36430" data-name="Path 36430" d="M153.791,162.747a.406.406,0,0,0,.244.526l.007,0,51.124,16.084a.392.392,0,0,0,.484-.224l25.18-62.1a.408.408,0,0,0,0-.315.507.507,0,0,0-.238-.208l-51.131-16.089a.386.386,0,0,0-.48.226Z" transform="translate(197.582 129.02)" fill="#9aade5"/>
      <path id="Path_36431" data-name="Path 36431" d="M193.725,123.058l-.976-.306,4.008-12.736a9.941,9.941,0,0,0-6.492-12.453l-2.1-.663a9.944,9.944,0,0,0-12.453,6.492L171.7,116.128l-.976-.306,4.008-12.736a10.961,10.961,0,0,1,13.735-7.161l2.1.663a10.985,10.985,0,0,1,7.161,13.737Z" transform="translate(219.377 122.609)" fill="#3f5a9f"/>
      <path id="Path_36432" data-name="Path 36432" d="M157.383,110.942l8.381,38.351a.448.448,0,0,0,.174.247.409.409,0,0,0,.29.05l.009,0,11.5-2.513a.387.387,0,0,0,.256-.192.382.382,0,0,0,.03-.32l-12.245-37.5a.4.4,0,0,0-.457-.265l-7.636,1.673a.4.4,0,0,0-.3.473" transform="translate(202.222 139.789)" fill="#f49b51"/>
      <path id="Path_36433" data-name="Path 36433" d="M149.256,121.386l-1.456-6.645a7.964,7.964,0,0,1,1.344-6.329,9.35,9.35,0,0,1,5.692-3.736l1.759-.386a9.359,9.359,0,0,1,6.729,1.015,7.96,7.96,0,0,1,3.866,5.191l1.455,6.642-1,.219-1.456-6.645a6.948,6.948,0,0,0-3.382-4.524,8.344,8.344,0,0,0-6-.9l-1.759.386A8.342,8.342,0,0,0,149.981,109a6.947,6.947,0,0,0-1.181,5.525l1.456,6.645Z" transform="translate(189.691 133.718)" fill="#3f5a9f"/>
      <path id="Path_36434" data-name="Path 36434" d="M146.859,157.163a.425.425,0,0,0,.162.279.4.4,0,0,0,.311.062l38.278-8.388a.381.381,0,0,0,.3-.427L181.359,109.5a.4.4,0,0,0-.167-.279.422.422,0,0,0-.311-.064l-38.269,8.381a.4.4,0,0,0-.313.436Z" transform="translate(182.85 140.261)" fill="#fcc659"/>
      <path id="Path_36435" data-name="Path 36435" d="M148.063,124.913l-2.139-9.761a7.951,7.951,0,0,1,1.344-6.329,9.35,9.35,0,0,1,5.692-3.736l1.757-.386a9.375,9.375,0,0,1,6.732,1.015,7.966,7.966,0,0,1,3.868,5.189l2.139,9.761-1,.217-2.139-9.761a6.946,6.946,0,0,0-3.384-4.522,8.346,8.346,0,0,0-6-.9l-1.757.386a8.342,8.342,0,0,0-5.075,3.325,6.951,6.951,0,0,0-1.181,5.523l2.139,9.761Z" transform="translate(187.279 134.247)" fill="#3f5a9f"/>
      <path id="Path_36436" data-name="Path 36436" d="M233.63,178.606H138.863v-1.179H233.63a4.608,4.608,0,0,0,4.275-2.893,4.894,4.894,0,0,0-.98-5.381l-16.233-21.7.946-.708,16.182,21.648a6,6,0,0,1,1.17,6.606,5.771,5.771,0,0,1-5.361,3.61" transform="translate(178.436 188.561)" fill="#0e1740"/>
      <path id="Path_36437" data-name="Path 36437" d="M143.469,171.581a8.472,8.472,0,1,0,8.473-8.473,8.472,8.472,0,0,0-8.473,8.473" transform="translate(184.355 209.591)" fill="#0e1740"/>
      <path id="Path_36438" data-name="Path 36438" d="M143.744,160.787l5.1,14.914a2.983,2.983,0,0,0,5.646-1.928l-4.437-12.986Z" transform="translate(184.708 206.608)" fill="#6d92f0"/>
      <path id="Path_36439" data-name="Path 36439" d="M146.292,168.029a2.022,2.022,0,1,0,2.022-2.022,2.021,2.021,0,0,0-2.022,2.022" transform="translate(187.982 213.316)" fill="#374263"/>
      <path id="Path_36440" data-name="Path 36440" d="M170.662,171.581a8.472,8.472,0,1,0,8.473-8.473,8.472,8.472,0,0,0-8.473,8.473" transform="translate(219.297 209.591)" fill="#0e1740"/>
      <path id="Path_36441" data-name="Path 36441" d="M170.937,160.787l5.1,14.914a2.983,2.983,0,0,0,5.646-1.928l-4.437-12.986Z" transform="translate(219.651 206.608)" fill="#6d92f0"/>
      <path id="Path_36442" data-name="Path 36442" d="M173.485,168.029a2.022,2.022,0,1,0,2.022-2.022,2.022,2.022,0,0,0-2.022,2.022" transform="translate(222.925 213.316)" fill="#374263"/>
      <path id="Path_36443" data-name="Path 36443" d="M190.853,142.6l-1.1-.43,15.5-39.537,15.782-1.44.107,1.174-15.058,1.373Z" transform="translate(243.831 130.028)" fill="#0e1740"/>
      <path id="Path_36444" data-name="Path 36444" d="M231.464,189.449q-.185,0-.37-.007l-82.623-2.975c-5.808-.208-10.577-5.173-11.094-11.548l-3.985-49.2.585-.048L267.645,114.2,242.1,181.65a11.626,11.626,0,0,1-10.634,7.8m-96.8-62.652,3.891,48.028c.468,5.779,4.748,10.276,9.96,10.463l82.623,2.975a10.359,10.359,0,0,0,9.857-7.031l24.881-65.7Z" transform="translate(171.407 146.738)" fill="#0e1740"/>
      <rect id="Rectangle_27716" data-name="Rectangle 27716" width="97.718" height="1.18" transform="translate(309.384 314.122) rotate(-1.888)" fill="#0e1740"/>
      <rect id="Rectangle_27717" data-name="Rectangle 27717" width="113.017" height="1.181" transform="translate(308.286 292.956) rotate(-3.439)" fill="#0e1740"/>
      <rect id="Rectangle_27718" data-name="Rectangle 27718" width="74.075" height="1.18" transform="translate(388.225 334.089) rotate(-71.601)" fill="#0e1740"/>
      <rect id="Rectangle_27719" data-name="Rectangle 27719" width="1.18" height="61.636" transform="matrix(0.998, -0.07, 0.07, 0.998, 327.353, 271.225)" fill="#3f5a9f"/>
      <rect id="Rectangle_27720" data-name="Rectangle 27720" width="68.849" height="1.18" transform="translate(369.339 333.744) rotate(-78.495)" fill="#0e1740"/>
      <rect id="Rectangle_27721" data-name="Rectangle 27721" width="65.58" height="1.179" transform="translate(350.885 333.814) rotate(-86.556)" fill="#0e1740"/>
      <path id="Path_36445" data-name="Path 36445" d="M203.807,109.068l7.73-.743a4.366,4.366,0,1,0-.836-8.692l-7.73.743a4.366,4.366,0,1,0,.836,8.692" transform="translate(255.739 128.001)" fill="#0e1740"/>
      <path id="Path_36446" data-name="Path 36446" d="M65.521,34.386l-.722-.434c8.525-14.219,22.256-23.867,43.216-30.361l.249.8c-20.748,6.43-34.33,15.958-42.743,29.99" transform="translate(83.265 4.614)" fill="#2e4882"/>
      <path id="Path_36447" data-name="Path 36447" d="M59.729,45.741l-.793-.288C69.94,15.207,98.185,5.5,124.364,0l.174.825C98.587,6.281,70.592,15.883,59.729,45.741" transform="translate(75.732)" fill="#2e4882"/>
      <path id="Path_36448" data-name="Path 36448" d="M289.068,103.233C279.64,83.664,268.2,71.643,253.084,65.4l.322-.779c15.323,6.327,26.894,18.481,36.418,38.248Z" transform="translate(325.208 83.034)" fill="#2e4882"/>
      <path id="Path_36449" data-name="Path 36449" d="M303.99,118.506c-9.234-24.858-22.873-51.124-54.01-57.449l.167-.825c31.542,6.407,45.318,32.9,54.634,57.981Z" transform="translate(321.219 77.397)" fill="#2e4882"/>
      <path id="Path_36450" data-name="Path 36450" d="M66.223,178.527c0,2.175,15.977,3.946,35.68,3.946s35.678-1.771,35.678-3.946a.549.549,0,0,0-.016-.119V167.744H66.248v10.639a.455.455,0,0,0-.025.144" transform="translate(85.095 215.548)" fill="#f49b51"/>
      <path id="Path_36451" data-name="Path 36451" d="M66.224,170.005c0,2.18,15.974,3.946,35.678,3.946s35.678-1.766,35.678-3.946-15.974-3.946-35.678-3.946-35.678,1.769-35.678,3.946" transform="translate(85.097 213.382)" fill="#fcc659"/>
      <path id="Path_36452" data-name="Path 36452" d="M62.533,172.895c0,2.175,15.977,3.946,35.68,3.946s35.678-1.771,35.678-3.946a.548.548,0,0,0-.016-.119V162.112H62.558v10.639a.454.454,0,0,0-.025.144" transform="translate(80.354 208.311)" fill="#f49b51"/>
      <path id="Path_36453" data-name="Path 36453" d="M62.534,164.373c0,2.18,15.974,3.946,35.678,3.946s35.678-1.766,35.678-3.946-15.974-3.944-35.678-3.944-35.678,1.764-35.678,3.944" transform="translate(80.355 206.148)" fill="#fcc659"/>
      <path id="Path_36454" data-name="Path 36454" d="M66.223,167.264c0,2.175,15.977,3.946,35.68,3.946s35.678-1.771,35.678-3.946a.53.53,0,0,0-.016-.119V156.481H66.248V167.12a.455.455,0,0,0-.025.144" transform="translate(85.095 201.075)" fill="#f49b51"/>
      <path id="Path_36455" data-name="Path 36455" d="M66.224,158.743c0,2.18,15.974,3.946,35.678,3.946s35.678-1.766,35.678-3.946S121.605,154.8,101.9,154.8s-35.678,1.766-35.678,3.946" transform="translate(85.097 198.911)" fill="#fcc659"/>
      <path id="Path_36456" data-name="Path 36456" d="M83.248,176.829c14.512,0,36.1-1.163,36.1-4.367h-.841c0,1.229-12.11,3.523-35.257,3.523q-1.265,0-2.5-.009l-.009.843q1.244.01,2.511.009" transform="translate(103.745 221.61)" fill="#0e1740"/>
      <path id="Path_36457" data-name="Path 36457" d="M81.206,175.1l.039-.841c-3.613-.174-6.923-.411-9.846-.7l-.082.836c2.934.3,6.261.535,9.889.708" transform="translate(91.641 223.016)" fill="#0e1740"/>
      <path id="Path_36458" data-name="Path 36458" d="M88.041,170.275c13.408-1.22,13.408-2.911,13.408-3.466h-.843c0,.411-2.271,1.684-12.641,2.625Z" transform="translate(113.035 214.346)" fill="#0e1740"/>
      <path id="Path_36459" data-name="Path 36459" d="M83.351,169.317c4.01,0,7.949-.073,11.708-.217l-.032-.843c-6.713.258-14.133.288-21.049.078l-.023.843c3.062.094,6.222.139,9.4.139" transform="translate(95.031 216.207)" fill="#0e1740"/>
      <path id="Path_36460" data-name="Path 36460" d="M75.661,169.492l.057-.841c-3.807-.251-7.125-.574-9.864-.962l-.119.834c2.763.391,6.1.717,9.926.969" transform="translate(84.468 215.477)" fill="#0e1740"/>
      <path id="Path_36461" data-name="Path 36461" d="M92.385,159.861c11.891-1.213,11.891-2.744,11.891-3.32h-.843c0,.014-.3,1.378-11.135,2.481Z" transform="translate(118.601 201.152)" fill="#0e1740"/>
      <path id="Path_36462" data-name="Path 36462" d="M93.216,159.322c4.1,0,8.112-.075,11.921-.226l-.034-.843c-3.8.151-7.8.226-11.886.226-7.323,0-14.357-.244-20.339-.7l-.064.839c6,.464,13.056.708,20.4.708" transform="translate(93.563 202.738)" fill="#0e1740"/>
      <path id="Path_36463" data-name="Path 36463" d="M60.688,161.633c0,2.175,15.977,3.946,35.68,3.946s35.678-1.771,35.678-3.946a.533.533,0,0,0-.016-.119V150.85H60.713v10.639a.455.455,0,0,0-.025.144" transform="translate(77.983 193.839)" fill="#f49b51"/>
      <path id="Path_36464" data-name="Path 36464" d="M60.69,153.111c0,2.18,15.974,3.946,35.678,3.946s35.678-1.766,35.678-3.946-15.974-3.946-35.678-3.946-35.678,1.769-35.678,3.946" transform="translate(77.985 191.674)" fill="#fcc659"/>
      <path id="Path_36465" data-name="Path 36465" d="M63.585,152.384c0,1.465,13.011,2.653,29.06,2.653s29.06-1.188,29.06-2.653-13.011-2.653-29.06-2.653-29.06,1.188-29.06,2.653" transform="translate(81.705 192.401)" fill="#f49b51"/>
      <path id="Path_36466" data-name="Path 36466" d="M61.245,144.787a36.039,36.039,0,1,0,35.049,37.005,36.038,36.038,0,0,0-35.049-37.005M89.268,181.6a29.008,29.008,0,1,1-29.019-29.8c.272,0,.537.007.809.016a29.037,29.037,0,0,1,28.217,28.987c0,.265,0,.528-.007.793" transform="translate(31.132 186.03)" fill="#fcc659"/>
      <path id="Path_36467" data-name="Path 36467" d="M85.319,176.856c0,.265,0,.528-.007.793a29.008,29.008,0,1,1-29.022-29.8c.272,0,.537.009.809.016a29.039,29.039,0,0,1,28.22,28.99" transform="translate(35.088 189.984)" fill="#f49b51"/>
      <path id="Path_36468" data-name="Path 36468" d="M43.846,195.205v-5.459a15.717,15.717,0,0,1-8.267-2.376l1.3-3.622a14.4,14.4,0,0,0,7.783,2.324c3.836,0,6.43-2.216,6.43-5.3,0-2.97-2.107-4.81-6.105-6.43-5.514-2.162-8.918-4.648-8.918-9.35,0-4.485,3.19-7.89,8.162-8.7v-5.457h3.35v5.242a14.443,14.443,0,0,1,7.026,1.89l-1.353,3.567A13.073,13.073,0,0,0,46.44,159.7c-4.161,0-5.728,2.486-5.728,4.648,0,2.811,2,4.216,6.7,6.16,5.566,2.271,8.377,5.082,8.377,9.892,0,4.268-2.973,8.267-8.539,9.186v5.621Z" transform="translate(45.718 193.824)" fill="#fcc659"/>
      <path id="Path_36469" data-name="Path 36469" d="M60.941,168.291c-.062-.235-.128-.471-.2-.706A28.667,28.667,0,0,0,45.351,149.58l.334-.711a29.419,29.419,0,0,1,15.8,18.451c.082.29.153.53.215.775Z" transform="translate(58.275 191.294)" fill="#0e1740"/>
      <path id="Path_36470" data-name="Path 36470" d="M56.32,151.138a28.621,28.621,0,0,0-19.306-1.778l-.2-.761a29.4,29.4,0,0,1,19.838,1.826Z" transform="translate(47.307 189.735)" fill="#2e4882"/>
      <path id="Path_36471" data-name="Path 36471" d="M51.526,173.191l-.676-.4a28.452,28.452,0,0,0,3.686-10.545l.779.107a29.254,29.254,0,0,1-3.789,10.835" transform="translate(65.341 208.485)" fill="#0e1740"/>
      <path id="Path_36472" data-name="Path 36472" d="M55.495,152.563a35.614,35.614,0,0,0-9.3-5.891l.336-.772a36.406,36.406,0,0,1,9.517,6.03Z" transform="translate(59.362 187.479)" fill="#0e1740"/>
      <path id="Path_36473" data-name="Path 36473" d="M49.169,201.809l-.473-.7a35.63,35.63,0,0,0,10.193-48.67l.711-.452a36.472,36.472,0,0,1-10.431,49.822" transform="translate(62.573 195.3)" fill="#0e1740"/>
      <path id="Path_36474" data-name="Path 36474" d="M109.788,44.669H70.445a.7.7,0,1,1,0-1.405h39.343a.7.7,0,0,1,0,1.405" transform="translate(89.616 55.593)" fill="#fff"/>
      <path id="Path_36475" data-name="Path 36475" d="M30.57,155.275a13.615,13.615,0,0,1,6.192,6.5,13.668,13.668,0,0,1,6.2-6.508,13.644,13.644,0,0,1-6.2-6.5,13.639,13.639,0,0,1-6.192,6.508" transform="translate(39.282 191.163)" fill="#ffe6a6"/>
      <path id="Path_36476" data-name="Path 36476" d="M46.127,170.626a7.92,7.92,0,0,1,3.6,3.775,7.943,7.943,0,0,1,3.6-3.782,7.929,7.929,0,0,1-3.6-3.775,7.934,7.934,0,0,1-3.6,3.782" transform="translate(59.272 214.391)" fill="#ffe6a6"/>
      <path id="Path_36477" data-name="Path 36477" d="M29.491,167.7a7.919,7.919,0,0,1,3.6,3.775,7.943,7.943,0,0,1,3.6-3.782,7.929,7.929,0,0,1-3.6-3.775,7.934,7.934,0,0,1-3.6,3.782" transform="translate(37.895 210.627)" fill="#ffe6a6"/>
    </g>
  </g>
</svg>
